<?xml version="1.0" encoding="utf-8"?>
<!-- Generator: Adobe Illustrator 18.1.0, SVG Export Plug-In . SVG Version: 6.00 Build 0)  -->
<!DOCTYPE svg PUBLIC "-//W3C//DTD SVG 1.0//EN" "http://www.w3.org/TR/2001/REC-SVG-20010904/DTD/svg10.dtd">
<svg version="1.0" xmlns="http://www.w3.org/2000/svg" xmlns:xlink="http://www.w3.org/1999/xlink" x="0px" y="0px"
	 viewBox="0 0 149.5 116.4" enable-background="new 0 0 149.5 116.4" xml:space="preserve">
<g id="Art">
</g>
<g id="Layer_2">
	<path fill="none" stroke="#000000" stroke-width="0.5" d="M149.2,108.7c0,4.1-3.3,7.4-7.4,7.4H7.7c-4.1,0-7.5-3.3-7.5-7.4V14.1
		c0-4.1,3.3-7.4,7.5-7.4h134.1c4.1,0,7.4,3.3,7.4,7.4V108.7z"/>
	<rect x="11.1" y="0" fill="#FFFFFF" width="52.2" height="13.2"/>
	<rect x="114.4" y="0" fill="#FFFFFF" width="24.4" height="13.2"/>
	<text transform="matrix(1 0 0 1 14.6714 8.6284)" font-family="'ArialMT'" font-size="8">article:92617</text>
	<text transform="matrix(1 0 0 1 118.1577 8.6284)" font-family="'ArialMT'" font-size="8">hash</text>
	<line fill="none" stroke="#000000" stroke-width="0.5" x1="0.3" y1="16.1" x2="149.2" y2="16.1"/>
	<text transform="matrix(1 0 0 1 14.6714 38.0571)" font-family="'ArialMT'" font-size="8">title</text>
	<text transform="matrix(1 0 0 1 14.6714 62.8344)" font-family="'ArialMT'" font-size="8">link</text>
	<text transform="matrix(1 0 0 1 14.6714 75.5805)" font-family="'ArialMT'" font-size="8">poster</text>
	<text transform="matrix(1 0 0 1 14.6714 87.9692)" font-family="'ArialMT'" font-size="8">time</text>
	<g>
		<text transform="matrix(1 0 0 1 59.3208 38.0571)"><tspan x="0" y="0" font-family="'ArialMT'" font-size="8">Go to statement</tspan><tspan x="0" y="10" font-family="'ArialMT'" font-size="8">considered harmful</tspan></text>
	</g>
	<g>
		<text transform="matrix(1 0 0 1 59.3208 62.8344)" font-family="'ArialMT'" font-size="8">http://goo.gl/kZUSu</text>
	</g>
	<g>
		<text transform="matrix(1 0 0 1 59.3208 75.5805)" font-family="'ArialMT'" font-size="8">user:83271</text>
	</g>
	<g>
		<text transform="matrix(1 0 0 1 59.3208 87.9692)" font-family="'ArialMT'" font-size="8">1331382699.33</text>
	</g>
	<g>
		<text transform="matrix(1 0 0 1 59.3208 100.2856)" font-family="'ArialMT'" font-size="8">528</text>
	</g>
	<text transform="matrix(1 0 0 1 14.6714 100.7163)" font-family="'ArialMT'" font-size="8">votes</text>
	<line fill="none" stroke="#949494" stroke-width="0.5" stroke-dasharray="3" x1="47.7" y1="16.3" x2="47.7" y2="115.9"/>
</g>
</svg>
