<?xml version="1.0" encoding="utf-8"?>
<!-- Generator: Adobe Illustrator 18.1.0, SVG Export Plug-In . SVG Version: 6.00 Build 0)  -->
<!DOCTYPE svg PUBLIC "-//W3C//DTD SVG 1.0//EN" "http://www.w3.org/TR/2001/REC-SVG-20010904/DTD/svg10.dtd">
<svg version="1.0" xmlns="http://www.w3.org/2000/svg" xmlns:xlink="http://www.w3.org/1999/xlink" x="0px" y="0px"
	 viewBox="0 0 328.2 94.4" enable-background="new 0 0 328.2 94.4" xml:space="preserve">
<g id="Art">
</g>
<g id="Layer_2">
	<text transform="matrix(1 0 0 1 17.2823 91.7681)" fill="#808080" font-family="'ArialMT'" font-size="8">A time-ordered ZSET of articles</text>
	<text transform="matrix(1 0 0 1 193.8062 91.7681)" fill="#808080" font-family="'ArialMT'" font-size="8">A score-ordered ZSET of articles</text>
	<text transform="matrix(1 0 0 1 14.6714 33.2915)" font-family="'ArialMT'" font-size="8">article:100408       1332065417.47</text>
	<text transform="matrix(1 0 0 1 14.6714 45.6802)" font-family="'ArialMT'" font-size="8">article:100635       1332075503.49</text>
	<text transform="matrix(1 0 0 1 14.6714 58.0689)" font-family="'ArialMT'" font-size="8">article:100716       1332082035.26</text>
	<path fill="none" stroke="#000000" stroke-width="0.5" d="M149.2,64.6c0,4.1-3.3,7.4-7.4,7.4H7.7c-4.1,0-7.5-3.3-7.5-7.4V14.1
		c0-4.1,3.3-7.4,7.5-7.4h134.1c4.1,0,7.4,3.3,7.4,7.4V64.6z"/>
	<rect x="11.1" y="0" fill="#FFFFFF" width="24.2" height="13.2"/>
	<rect x="117.4" y="0" fill="#FFFFFF" width="21.4" height="13.2"/>
	<text transform="matrix(1 0 0 1 14.6714 8.6284)" font-family="'ArialMT'" font-size="8">time:</text>
	<text transform="matrix(1 0 0 1 120.8335 8.6284)" font-family="'ArialMT'" font-size="8">zset</text>
	<line fill="none" stroke="#000000" stroke-width="0.5" x1="0.3" y1="16.1" x2="149.2" y2="16.1"/>
	<line fill="none" stroke="#949494" stroke-width="0.5" stroke-dasharray="3" x1="73.3" y1="16.3" x2="73.3" y2="71.8"/>
	<line fill="none" stroke="#949494" stroke-width="0.5" stroke-dasharray="3" x1="252" y1="16.3" x2="252" y2="71.8"/>
	<text transform="matrix(1 0 0 1 193.42 33.2915)" font-family="'ArialMT'" font-size="8">article:100635       1332164063.49</text>
	<text transform="matrix(1 0 0 1 193.42 45.6802)" font-family="'ArialMT'" font-size="8">article:100408       1332174713.47</text>
	<text transform="matrix(1 0 0 1 193.42 58.0689)" font-family="'ArialMT'" font-size="8">article:100716       1332225027.26</text>
	<path fill="none" stroke="#000000" stroke-width="0.5" d="M328,64.6c0,4.1-3.3,7.4-7.4,7.4H186.4c-4.1,0-7.4-3.3-7.4-7.4V14.1
		c0-4.1,3.3-7.4,7.4-7.4h134.1c4.1,0,7.4,3.3,7.4,7.4V64.6z"/>
	<rect x="189.8" y="0" fill="#FFFFFF" width="28.2" height="13.2"/>
	<rect x="296.1" y="0" fill="#FFFFFF" width="21.4" height="13.2"/>
	<text transform="matrix(1 0 0 1 193.42 8.6284)" font-family="'ArialMT'" font-size="8">score:</text>
	<text transform="matrix(1 0 0 1 299.5821 8.6284)" font-family="'ArialMT'" font-size="8">zset</text>
	<line fill="none" stroke="#000000" stroke-width="0.5" x1="179" y1="16.1" x2="328" y2="16.1"/>
</g>
</svg>
