<?xml version="1.0" encoding="utf-8"?>
<!-- Generator: Adobe Illustrator 18.1.0, SVG Export Plug-In . SVG Version: 6.00 Build 0)  -->
<!DOCTYPE svg PUBLIC "-//W3C//DTD SVG 1.0//EN" "http://www.w3.org/TR/2001/REC-SVG-20010904/DTD/svg10.dtd">
<svg version="1.0" xmlns="http://www.w3.org/2000/svg" xmlns:xlink="http://www.w3.org/1999/xlink" x="0px" y="0px"
	 viewBox="0 0 149.5 99.3" enable-background="new 0 0 149.5 99.3" xml:space="preserve">
<g id="Art">
</g>
<g id="Layer_2">
	<path fill="none" stroke="#000000" stroke-width="0.5" d="M149.2,91.6c0,4.1-3.3,7.4-7.4,7.4H7.7c-4.1,0-7.5-3.3-7.5-7.4V14.1
		c0-4.1,3.3-7.5,7.5-7.5h134.1c4.1,0,7.4,3.3,7.4,7.5V91.6z"/>
	<rect x="11.1" y="0" fill="#FFFFFF" width="56.2" height="13.2"/>
	<rect x="121.1" y="0" fill="#FFFFFF" width="17.7" height="13.2"/>
	<text transform="matrix(1 0 0 1 14.6714 8.6289)" font-family="'ArialMT'" font-size="8">voted:100408</text>
	<text transform="matrix(1 0 0 1 14.6714 23.6231)" font-family="'ArialMT'" font-size="8">user:234487</text>
	<text transform="matrix(1 0 0 1 14.6714 36.0118)" font-family="'ArialMT'" font-size="8">user:253378</text>
	<text transform="matrix(1 0 0 1 14.6714 48.4004)" font-family="'ArialMT'" font-size="8">user:364680</text>
	<text transform="matrix(1 0 0 1 14.6714 60.5772)" font-family="'ArialMT'" font-size="8">user:132097</text>
	<text transform="matrix(1 0 0 1 14.6714 72.9659)" font-family="'ArialMT'" font-size="8">user:350917</text>
	<text transform="matrix(1 0 0 1 14.6714 85.3994)" font-family="'ArialMT'" font-size="8">...</text>
	<text transform="matrix(1 0 0 1 124.8335 8.6289)" font-family="'ArialMT'" font-size="8">set</text>
</g>
</svg>
